<svg width="25" height="24" viewBox="0 0 25 24" fill="none" xmlns="http://www.w3.org/2000/svg">
<path fill-rule="evenodd" clip-rule="evenodd" d="M7.5498 2.25C7.96402 2.25 8.2998 2.58579 8.2998 3V4.5H17.2998V3C17.2998 2.58579 17.6356 2.25 18.0498 2.25C18.464 2.25 18.7998 2.58579 18.7998 3V4.5H19.5498C21.2067 4.5 22.5498 5.84315 22.5498 7.5V18.75C22.5498 20.4069 21.2067 21.75 19.5498 21.75H6.0498C4.39295 21.75 3.0498 20.4069 3.0498 18.75V7.5C3.0498 5.84315 4.39295 4.5 6.0498 4.5H6.7998V3C6.7998 2.58579 7.13559 2.25 7.5498 2.25ZM21.0498 11.25C21.0498 10.4216 20.3782 9.75 19.5498 9.75H6.0498C5.22138 9.75 4.5498 10.4216 4.5498 11.25V18.75C4.5498 19.5784 5.22138 20.25 6.0498 20.25H19.5498C20.3782 20.25 21.0498 19.5784 21.0498 18.75V11.25Z" fill="#999999"/>
</svg>
