<svg width="22" height="18" viewBox="0 0 22 18" fill="none" xmlns="http://www.w3.org/2000/svg">
<path fill-rule="evenodd" clip-rule="evenodd" d="M21.5 9C21.5 9.62132 20.9963 10.125 20.375 10.125L4.41812 10.125L10.6547 16.0641C11.1026 16.4947 11.1166 17.2069 10.6859 17.6548C10.2553 18.1026 9.54312 18.1166 9.09525 17.6859L0.845253 9.81094C0.624664 9.59883 0.5 9.30602 0.5 9C0.5 8.69398 0.624664 8.40117 0.845253 8.18906L9.09525 0.314064C9.54312 -0.116579 10.2553 -0.102615 10.6859 0.345254C11.1166 0.793122 11.1026 1.5053 10.6547 1.93594L4.41812 7.875L20.375 7.875C20.9963 7.875 21.5 8.37868 21.5 9Z" fill="#808080"/>
</svg>
