<svg width="25" height="24" viewBox="0 0 25 24" fill="none" xmlns="http://www.w3.org/2000/svg">
<path d="M19.2067 3.70481C19.596 3.56325 19.7968 3.13293 19.6552 2.74365C19.5137 2.35438 19.0834 2.15356 18.6941 2.29511L6.20056 6.83822V2.99996C6.20056 2.58575 5.86478 2.24996 5.45056 2.24996H3.95056C3.53635 2.24996 3.20056 2.58575 3.20056 2.99996V7.92913L2.19409 8.29511C1.80482 8.43667 1.604 8.86699 1.74555 9.25627C1.88711 9.64554 2.31743 9.84636 2.70671 9.7048L19.2067 3.70481Z" fill="#999999"/>
<path fill-rule="evenodd" clip-rule="evenodd" d="M3.21952 11.1145L18.2006 5.66684V9.08833L22.2067 10.5451C22.596 10.6867 22.7968 11.117 22.6552 11.5063C22.5137 11.8955 22.0834 12.0964 21.6941 11.9548L21.2004 11.7753V20.25H21.9506C22.3648 20.25 22.7006 20.5857 22.7006 21C22.7006 21.4142 22.3648 21.75 21.9506 21.75H2.45056C2.03635 21.75 1.70056 21.4142 1.70056 21C1.70056 20.5857 2.03635 20.25 2.45056 20.25H3.20056V11.1213L3.21952 11.1145ZM18.2006 20.25V10.6844L19.7004 11.2298V20.25H18.2006ZM9.20056 14.25C8.78635 14.25 8.45056 14.5857 8.45056 15V19.5C8.45056 19.9142 8.78635 20.25 9.20056 20.25H12.2006C12.6148 20.25 12.9506 19.9142 12.9506 19.5V15C12.9506 14.5857 12.6148 14.25 12.2006 14.25H9.20056Z" fill="#999999"/>
</svg>
