<svg width="25" height="24" viewBox="0 0 25 24" fill="none" xmlns="http://www.w3.org/2000/svg">
<path d="M12.4004 7.5C11.1577 7.5 10.1504 8.50736 10.1504 9.75C10.1504 10.9926 11.1577 12 12.4004 12C13.643 12 14.6504 10.9926 14.6504 9.75C14.6504 8.50736 13.643 7.5 12.4004 7.5Z" fill="#999999"/>
<path fill-rule="evenodd" clip-rule="evenodd" d="M1.90039 4.875C1.90039 3.83947 2.73986 3 3.77539 3H21.0254C22.0609 3 22.9004 3.83947 22.9004 4.875V14.625C22.9004 15.6605 22.0609 16.5 21.0254 16.5H3.77539C2.73986 16.5 1.90039 15.6605 1.90039 14.625V4.875ZM8.65039 9.75C8.65039 7.67893 10.3293 6 12.4004 6C14.4715 6 16.1504 7.67893 16.1504 9.75C16.1504 11.8211 14.4715 13.5 12.4004 13.5C10.3293 13.5 8.65039 11.8211 8.65039 9.75ZM19.1504 9C18.7362 9 18.4004 9.33579 18.4004 9.75V9.7575C18.4004 10.1717 18.7362 10.5075 19.1504 10.5075H19.1579C19.5721 10.5075 19.9079 10.1717 19.9079 9.7575V9.75C19.9079 9.33579 19.5721 9 19.1579 9H19.1504ZM4.90039 9.75C4.90039 9.33579 5.23618 9 5.65039 9H5.65789C6.0721 9 6.40789 9.33579 6.40789 9.75V9.7575C6.40789 10.1717 6.0721 10.5075 5.65789 10.5075H5.65039C5.23618 10.5075 4.90039 10.1717 4.90039 9.7575V9.75Z" fill="#999999"/>
<path d="M2.65039 18C2.23618 18 1.90039 18.3358 1.90039 18.75C1.90039 19.1642 2.23618 19.5 2.65039 19.5C8.05044 19.5 13.2806 20.2222 18.2502 21.5749C19.4407 21.899 20.6504 21.0168 20.6504 19.7551V18.75C20.6504 18.3358 20.3146 18 19.9004 18H2.65039Z" fill="#999999"/>
</svg>
