<svg width="61" height="60" viewBox="0 0 61 60" fill="none" xmlns="http://www.w3.org/2000/svg">
<rect x="1.1665" y="0.5" width="59" height="59" rx="29.5" stroke="url(#paint0_linear_1_24767)"/>
<rect x="1.1665" y="0.5" width="59" height="59" rx="29.5" stroke="url(#paint1_linear_1_24767)"/>
<rect x="9.1665" y="8.5" width="43" height="43" rx="21.5" stroke="url(#paint2_linear_1_24767)"/>
<rect x="9.1665" y="8.5" width="43" height="43" rx="21.5" stroke="url(#paint3_linear_1_24767)"/>
<path fill-rule="evenodd" clip-rule="evenodd" d="M27.6665 22.5C28.0014 22.5 28.2957 22.722 28.3876 23.044L29.2008 25.8902C29.5568 27.1359 30.5306 28.1097 31.7764 28.4657L34.6225 29.2789C34.9445 29.3709 35.1665 29.6651 35.1665 30C35.1665 30.3349 34.9445 30.6291 34.6225 30.7211L31.7764 31.5343C30.5306 31.8903 29.5568 32.8641 29.2008 34.1099L28.3876 36.956C28.2957 37.278 28.0014 37.5 27.6665 37.5C27.3316 37.5 27.0374 37.278 26.9454 36.956L26.1322 34.1099C25.7762 32.8641 24.8024 31.8903 23.5567 31.5343L20.7105 30.7211C20.3885 30.6291 20.1665 30.3349 20.1665 30C20.1665 29.6651 20.3885 29.3709 20.7105 29.2789L23.5567 28.4657C24.8024 28.1097 25.7762 27.1359 26.1322 25.8901L26.9454 23.044C27.0374 22.722 27.3316 22.5 27.6665 22.5Z" fill="#A685FA"/>
<path fill-rule="evenodd" clip-rule="evenodd" d="M36.6665 19.5C37.0107 19.5 37.3106 19.7342 37.3941 20.0681L37.653 21.1036C37.8881 22.0441 38.6224 22.7784 39.5629 23.0135L40.5984 23.2724C40.9323 23.3559 41.1665 23.6558 41.1665 24C41.1665 24.3442 40.9323 24.6441 40.5984 24.7276L39.5629 24.9865C38.6224 25.2216 37.8881 25.9559 37.653 26.8964L37.3941 27.9319C37.3106 28.2658 37.0107 28.5 36.6665 28.5C36.3224 28.5 36.0224 28.2658 35.9389 27.9319L35.68 26.8964C35.4449 25.9559 34.7106 25.2216 33.7701 24.9865L32.7346 24.7276C32.4007 24.6441 32.1665 24.3442 32.1665 24C32.1665 23.6558 32.4007 23.3559 32.7346 23.2724L33.7701 23.0135C34.7106 22.7784 35.4449 22.0441 35.68 21.1036L35.9389 20.0681C36.0224 19.7342 36.3224 19.5 36.6665 19.5Z" fill="#A685FA"/>
<path fill-rule="evenodd" clip-rule="evenodd" d="M35.1665 33C35.4893 33 35.7759 33.2066 35.878 33.5128L36.2723 34.6956C36.4216 35.1435 36.773 35.4949 37.2209 35.6442L38.4037 36.0385C38.7099 36.1406 38.9165 36.4272 38.9165 36.75C38.9165 37.0728 38.7099 37.3594 38.4037 37.4615L37.2209 37.8558C36.773 38.0051 36.4216 38.3565 36.2723 38.8044L35.878 39.9872C35.7759 40.2934 35.4893 40.5 35.1665 40.5C34.8437 40.5 34.5571 40.2934 34.455 39.9872L34.0607 38.8044C33.9114 38.3565 33.56 38.0051 33.1121 37.8558L31.9293 37.4615C31.6231 37.3594 31.4165 37.0728 31.4165 36.75C31.4165 36.4272 31.6231 36.1406 31.9293 36.0385L33.1121 35.6442C33.56 35.4949 33.9114 35.1435 34.0607 34.6956L34.455 33.5128C34.5571 33.2066 34.8437 33 35.1665 33Z" fill="#A685FA"/>
<defs>
<linearGradient id="paint0_linear_1_24767" x1="5.60553" y1="63.2927" x2="63.4104" y2="-4.02439" gradientUnits="userSpaceOnUse">
<stop stop-color="#A685FA"/>
<stop offset="0.323723" stop-color="#A685FA" stop-opacity="0"/>
</linearGradient>
<linearGradient id="paint1_linear_1_24767" x1="60.4836" y1="-7.68292" x2="5.60553" y2="60" gradientUnits="userSpaceOnUse">
<stop stop-color="#A685FA"/>
<stop offset="0.576615" stop-color="#A685FA" stop-opacity="0"/>
</linearGradient>
<linearGradient id="paint2_linear_1_24767" x1="3.87618" y1="10.4839" x2="52.4891" y2="52" gradientUnits="userSpaceOnUse">
<stop stop-color="#A685FA"/>
<stop offset="0.323723" stop-color="#A685FA" stop-opacity="0"/>
</linearGradient>
<linearGradient id="paint3_linear_1_24767" x1="61.36" y1="61.9355" x2="10.2633" y2="25.7419" gradientUnits="userSpaceOnUse">
<stop stop-color="#A685FA"/>
<stop offset="0.576615" stop-color="#A685FA" stop-opacity="0"/>
</linearGradient>
</defs>
</svg>
