<svg width="61" height="60" viewBox="0 0 61 60" fill="none" xmlns="http://www.w3.org/2000/svg">
<rect x="1.1665" y="0.5" width="59" height="59" rx="29.5" stroke="url(#paint0_linear_1_24640)"/>
<rect x="1.1665" y="0.5" width="59" height="59" rx="29.5" stroke="url(#paint1_linear_1_24640)"/>
<rect x="9.1665" y="8.5" width="43" height="43" rx="21.5" stroke="url(#paint2_linear_1_24640)"/>
<rect x="9.1665" y="8.5" width="43" height="43" rx="21.5" stroke="url(#paint3_linear_1_24640)"/>
<path d="M39.6665 24.375C39.6665 27.0674 35.6371 29.25 30.6665 29.25C25.6959 29.25 21.6665 27.0674 21.6665 24.375C21.6665 21.6826 25.6959 19.5 30.6665 19.5C35.6371 19.5 39.6665 21.6826 39.6665 24.375Z" fill="#A685FA"/>
<path d="M30.6665 30.75C33.3517 30.75 35.857 30.1637 37.7449 29.1411C38.4349 28.7673 39.0913 28.3043 39.6412 27.7567C39.658 27.8783 39.6665 28.0011 39.6665 28.125C39.6665 30.8174 35.6371 33 30.6665 33C25.6959 33 21.6665 30.8174 21.6665 28.125C21.6665 28.0011 21.675 27.8783 21.6918 27.7567C22.2417 28.3043 22.8981 28.7673 23.5881 29.1411C25.476 30.1637 27.9813 30.75 30.6665 30.75Z" fill="#A685FA"/>
<path d="M30.6665 34.5C33.3517 34.5 35.857 33.9137 37.7449 32.8911C38.4349 32.5173 39.0913 32.0543 39.6412 31.5067C39.658 31.6283 39.6665 31.7511 39.6665 31.875C39.6665 34.5674 35.6371 36.75 30.6665 36.75C25.6959 36.75 21.6665 34.5674 21.6665 31.875C21.6665 31.7511 21.675 31.6283 21.6918 31.5067C22.2417 32.0543 22.8981 32.5173 23.5881 32.8911C25.476 33.9137 27.9813 34.5 30.6665 34.5Z" fill="#A685FA"/>
<path d="M30.6665 38.25C33.3517 38.25 35.857 37.6637 37.7449 36.6411C38.4349 36.2673 39.0913 35.8043 39.6412 35.2567C39.658 35.3783 39.6665 35.5011 39.6665 35.625C39.6665 38.3174 35.6371 40.5 30.6665 40.5C25.6959 40.5 21.6665 38.3174 21.6665 35.625C21.6665 35.5011 21.675 35.3783 21.6918 35.2567C22.2417 35.8043 22.8981 36.2673 23.5881 36.6411C25.476 37.6637 27.9813 38.25 30.6665 38.25Z" fill="#A685FA"/>
<defs>
<linearGradient id="paint0_linear_1_24640" x1="5.60553" y1="63.2927" x2="63.4104" y2="-4.02439" gradientUnits="userSpaceOnUse">
<stop stop-color="#A685FA"/>
<stop offset="0.323723" stop-color="#A685FA" stop-opacity="0"/>
</linearGradient>
<linearGradient id="paint1_linear_1_24640" x1="60.4836" y1="-7.68292" x2="5.60553" y2="60" gradientUnits="userSpaceOnUse">
<stop stop-color="#A685FA"/>
<stop offset="0.576615" stop-color="#A685FA" stop-opacity="0"/>
</linearGradient>
<linearGradient id="paint2_linear_1_24640" x1="3.87618" y1="10.4839" x2="52.4891" y2="52" gradientUnits="userSpaceOnUse">
<stop stop-color="#A685FA"/>
<stop offset="0.323723" stop-color="#A685FA" stop-opacity="0"/>
</linearGradient>
<linearGradient id="paint3_linear_1_24640" x1="61.36" y1="61.9355" x2="10.2633" y2="25.7419" gradientUnits="userSpaceOnUse">
<stop stop-color="#A685FA"/>
<stop offset="0.576615" stop-color="#A685FA" stop-opacity="0"/>
</linearGradient>
</defs>
</svg>
