<svg width="20" height="21" viewBox="0 0 20 21" fill="none" xmlns="http://www.w3.org/2000/svg">
<g clip-path="url(#clip0_1_21595)">
<g clip-path="url(#clip1_1_21595)">
<path d="M0.270432 14.2616H10.111V16.0697H16.2625V14.2655H18.7064C18.8646 16.4158 18.8771 18.3304 16.6716 19.7897C16.6447 19.8075 16.623 19.8318 16.5633 19.885C16.8345 20.1102 17.1018 20.3329 17.3665 20.5529C17.0092 20.8944 16.7222 21.169 16.3932 21.4842C16.1029 21.1847 15.7889 20.8373 15.4467 20.5207C15.3462 20.4275 15.1683 20.3894 15.0224 20.3802C14.784 20.3657 14.5423 20.4045 14.302 20.4051C11.1067 20.4071 7.91145 20.4064 4.71554 20.4064C4.56251 20.4064 4.39897 20.436 4.25777 20.3933C3.83151 20.2652 3.56092 20.4629 3.3074 20.7683C3.09132 21.0284 2.84502 21.2629 2.61975 21.5007C2.31566 21.1808 2.04046 20.8918 1.73572 20.5706C1.93998 20.39 2.19941 20.1602 2.49102 19.9014C2.29004 19.7575 2.13964 19.6577 1.99712 19.5474C0.929186 18.7244 0.351873 17.6329 0.276343 16.2924C0.238906 15.6283 0.269775 14.9604 0.269775 14.2616H0.270432Z" fill="white"/>
<path d="M0.275543 9.28711C0.270288 9.16823 0.261093 9.06117 0.261093 8.95412C0.260437 7.21364 0.258466 5.47382 0.261093 3.73335C0.26372 1.82079 1.59108 0.486207 3.50101 0.499999C4.14203 0.504597 4.80275 0.491461 5.41882 0.63661C6.5117 0.894726 7.20001 1.65265 7.53235 2.72058C7.59671 2.92813 7.68012 3.02862 7.90803 3.09035C9.19401 3.43911 10.0964 4.64102 10.1128 5.98217C10.1155 6.19825 10.1128 6.41434 10.1128 6.64881H4.02578C3.73548 5.1139 4.56959 3.52974 6.31335 3.03518C6.15573 2.35016 5.48121 1.77219 4.7732 1.74723C4.23792 1.72818 3.70067 1.72621 3.16539 1.74723C2.24261 1.78335 1.50044 2.63061 1.4965 3.64665C1.48994 5.39763 1.49453 7.14928 1.49453 8.90026C1.49453 9.0198 1.49453 9.13933 1.49453 9.28645H0.274229L0.275543 9.28711Z" fill="white"/>
<path d="M10.0936 13.0328C9.96484 13.0328 9.8683 13.0328 9.77175 13.0328C6.64415 13.0328 3.51589 13.0334 0.388282 13.0321C-0.284921 13.0321 -0.768971 12.7136 -0.939078 12.1697C-1.19522 11.3514 -0.615283 10.5632 0.268748 10.5514C1.20926 10.5389 2.14978 10.5481 3.09029 10.5481C5.29971 10.5481 7.50847 10.5481 9.71789 10.5481C9.83611 10.5481 9.95434 10.5481 10.0936 10.5481V13.0321V13.0328Z" fill="white"/>
<path d="M15.0227 14.8711H11.3625C11.3565 14.7555 11.3467 14.6504 11.3467 14.5453C11.3454 13.2771 11.3454 12.0082 11.3467 10.7399C11.3473 9.82239 11.8485 9.31798 12.7621 9.31404C13.101 9.31272 13.4399 9.3055 13.7788 9.31601C14.54 9.34031 15.0372 9.85194 15.0391 10.6151C15.0431 11.9385 15.0404 13.2613 15.0391 14.5847C15.0391 14.6708 15.0299 14.7561 15.0227 14.8711Z" fill="white"/>
<path d="M16.2832 13.0209V10.5481C16.8782 10.5481 17.4648 10.5462 18.0506 10.5488C18.356 10.5501 18.668 10.5251 18.9668 10.5744C19.619 10.6821 20.0433 11.2161 20.0164 11.8394C19.9901 12.4508 19.5389 12.9756 18.8985 13.0091C18.0394 13.0544 17.1764 13.0203 16.2839 13.0203L16.2832 13.0209Z" fill="white"/>
</g>
</g>
<defs>
<clipPath id="clip0_1_21595">
<rect width="20" height="20" fill="white" transform="translate(0 0.5)"/>
</clipPath>
<clipPath id="clip1_1_21595">
<rect width="21.0171" height="21" fill="white" transform="translate(-1 0.5)"/>
</clipPath>
</defs>
</svg>
