<svg width="20" height="21" viewBox="0 0 20 21" fill="none" xmlns="http://www.w3.org/2000/svg">
<g clip-path="url(#clip0_1_26385)">
<g clip-path="url(#clip1_1_26385)">
<path d="M0.837286 3.76612C0.612648 4.03028 0.387352 4.29379 0.167984 4.55136C-0.262846 4.11658 -0.63834 3.73845 -1 3.37416C-0.083004 2.45584 0.852437 1.51974 1.77602 0.595499C2.70026 1.52172 3.63505 2.45782 4.55072 3.37547C4.19302 3.73318 3.81489 4.11065 3.40382 4.52172C3.16601 4.25624 2.91041 3.97099 2.59025 3.6146V7.40446C4.31555 5.67653 6.08234 3.90841 7.8386 2.14952C7.37549 2.14952 6.85112 2.11724 6.33333 2.1594C5.88472 2.19563 5.57115 2.04807 5.27866 1.71737C4.92358 1.31618 4.51976 0.957818 4.08235 0.527646C4.24769 0.51513 4.33794 0.502613 4.42885 0.502613C8.82148 0.501955 13.2141 0.499978 17.6067 0.502613C19.0086 0.503272 20.0079 1.48022 20.0099 2.8735C20.0171 7.28918 20.0125 11.7042 20.0125 16.1199C20.0125 16.1811 20.0059 16.2431 19.9209 16.363C19.5231 15.9466 19.143 15.5112 18.72 15.1219C18.4453 14.8689 18.3347 14.6054 18.357 14.2338C18.3887 13.7141 18.365 13.191 18.365 12.6746C16.6008 14.4407 14.8544 16.1884 13.112 17.9328H16.9091C16.554 17.6429 16.2615 17.4045 15.9743 17.1699C16.4453 16.7167 16.8287 16.3478 17.2016 15.9881C18.0837 16.8801 19.0152 17.8215 19.9401 18.7562C19.0441 19.6456 18.1047 20.5784 17.1752 21.5006C16.8261 21.1449 16.4545 20.7668 16.0586 20.3636C16.2813 20.1673 16.5349 19.9433 16.7885 19.7193C16.7727 19.6805 16.7569 19.6416 16.7404 19.6034H16.3775C12.0507 19.6034 7.72398 19.6047 3.39723 19.6027C2.21278 19.6027 1.35903 19.0283 1.03294 17.9835C0.943346 17.6963 0.917655 17.3801 0.916996 17.0764C0.90975 12.7707 0.912385 8.46506 0.912385 4.1594C0.912385 4.04346 0.912385 3.92686 0.912385 3.81091C0.886693 3.79576 0.861001 3.78127 0.83531 3.76612H0.837286ZM2.56258 16.6831C7.40975 11.8353 12.249 6.99471 17.0935 2.14952C16.4032 2.14952 15.6937 2.14359 14.9842 2.15676C14.8933 2.15874 14.7879 2.24174 14.7154 2.31421C10.7167 6.30894 6.72003 10.3063 2.72596 14.3063C2.65415 14.3788 2.57115 14.4842 2.56917 14.5751C2.55599 15.2839 2.56192 15.9927 2.56192 16.6825L2.56258 16.6831ZM18.365 3.45782C13.5296 8.29181 8.69499 13.1258 3.86693 17.9525C4.52569 17.9525 5.22464 17.9585 5.92358 17.9453C6.01449 17.9433 6.11858 17.857 6.19104 17.7839C10.1963 13.7826 14.1996 9.77864 18.1996 5.77271C18.2721 5.70024 18.3557 5.59484 18.357 5.50393C18.3702 4.80564 18.3643 4.1067 18.3643 3.45782H18.365ZM18.365 8.08759C15.0758 11.3742 11.7833 14.664 8.49144 17.9525C9.15876 17.9525 9.85705 17.9585 10.556 17.9453C10.6462 17.9433 10.749 17.8531 10.8221 17.78C13.2846 15.3221 15.7444 12.8616 18.2016 10.3985C18.2734 10.3261 18.3557 10.22 18.3577 10.1284C18.3709 9.42949 18.365 8.73055 18.365 8.08694V8.08759ZM2.56258 12.023C5.861 8.72593 9.14624 5.44135 12.4387 2.14952C11.7793 2.14952 11.1028 2.14359 10.4262 2.1561C10.334 2.15808 10.2266 2.23516 10.1548 2.3063C7.67589 4.77995 5.20026 7.25624 2.72727 9.73516C2.65547 9.80762 2.5718 9.91236 2.56983 10.0039C2.55665 10.6818 2.56258 11.3597 2.56258 12.023Z" fill="#999999"/>
</g>
</g>
<defs>
<clipPath id="clip0_1_26385">
<rect width="20" height="20" fill="white" transform="translate(0 0.5)"/>
</clipPath>
<clipPath id="clip1_1_26385">
<rect width="21.0145" height="21" fill="white" transform="translate(-1 0.5)"/>
</clipPath>
</defs>
</svg>
